<?xml version="1.0" standalone="no"?>
<!DOCTYPE svg PUBLIC "-//W3C//DTD SVG 20010904//EN"
 "http://www.w3.org/TR/2001/REC-SVG-20010904/DTD/svg10.dtd">
<svg version="1.0" xmlns="http://www.w3.org/2000/svg"
 width="700.000000pt" height="700.000000pt" viewBox="0 0 700.000000 700.000000"
 preserveAspectRatio="xMidYMid meet">
<metadata>
Created by potrace 1.14, written by Peter Selinger 2001-2017
</metadata>
<g transform="translate(0.000000,700.000000) scale(0.100000,-0.100000)"
fill="#000000" stroke="none">
<path d="M590 3565 l0 -1955 23 -1 c152 -3 867 -3 868 1 1 3 2 354 3 780 l1
775 717 3 716 2 0 -781 0 -781 429 0 c235 1 438 1 450 1 l22 1 0 1955 0 1955
-450 0 -449 0 -1 -52 c0 -29 0 -387 0 -795 l0 -743 -717 0 -717 0 0 795 0 795
-447 0 -448 0 0 -1955z"/>
<path d="M5360 3359 c-134 -17 -226 -46 -337 -105 -261 -138 -430 -375 -489
-684 -22 -117 -6 -306 36 -437 77 -239 264 -455 477 -553 38 -17 75 -35 84
-39 8 -5 55 -19 105 -32 94 -24 289 -32 384 -17 376 63 676 347 767 727 19 82
26 262 13 333 -6 29 -13 67 -16 83 -8 46 -54 175 -77 214 -11 20 -25 45 -31
56 -75 135 -232 282 -380 357 -165 83 -363 119 -536 97z"/>
</g>
</svg>
