<?xml version="1.0" encoding="UTF-8" standalone="no"?>
<!-- Created with Inkscape (http://www.inkscape.org/) -->

<svg
   xmlns:dc="http://purl.org/dc/elements/1.1/"
   xmlns:cc="http://creativecommons.org/ns#"
   xmlns:rdf="http://www.w3.org/1999/02/22-rdf-syntax-ns#"
   xmlns:svg="http://www.w3.org/2000/svg"
   xmlns="http://www.w3.org/2000/svg"
   xmlns:sodipodi="http://sodipodi.sourceforge.net/DTD/sodipodi-0.dtd"
   xmlns:inkscape="http://www.inkscape.org/namespaces/inkscape"
   width="400"
   height="150"
   viewBox="0 0 105.83333 39.687501"
   version="1.1"
   id="svg8"
   inkscape:version="0.92.5 (2060ec1f9f, 2020-04-08)"
   sodipodi:docname="logo.svg">
  <defs
     id="defs2" />
  <sodipodi:namedview
     id="base"
     pagecolor="#ffffff"
     bordercolor="#666666"
     borderopacity="1.0"
     inkscape:pageopacity="0.0"
     inkscape:pageshadow="2"
     inkscape:zoom="0.98994949"
     inkscape:cx="370.59122"
     inkscape:cy="53.357193"
     inkscape:document-units="mm"
     inkscape:current-layer="g4536"
     showgrid="false"
     units="px"
     inkscape:window-width="1920"
     inkscape:window-height="1015"
     inkscape:window-x="0"
     inkscape:window-y="0"
     inkscape:window-maximized="1" />
  <metadata
     id="metadata5">
    <rdf:RDF>
      <cc:Work
         rdf:about="">
        <dc:format>image/svg+xml</dc:format>
        <dc:type
           rdf:resource="http://purl.org/dc/dcmitype/StillImage" />
        <dc:title></dc:title>
      </cc:Work>
    </rdf:RDF>
  </metadata>
  <g
     inkscape:label="Layer 1"
     inkscape:groupmode="layer"
     id="layer1"
     transform="translate(0,-257.31249)">
    <g
       id="g4536"
       transform="translate(-0.5668065,5.8850936)">
      <g
         aria-label="HMR"
         transform="matrix(0.95160274,0,0,0.95160274,-10.527752,218.28239)"
         style="font-style:normal;font-variant:normal;font-weight:bold;font-stretch:normal;font-size:40px;line-height:1.25;font-family:Hind;-inkscape-font-specification:'Hind Bold';letter-spacing:0px;word-spacing:0px;fill:#000000;fill-opacity:1;stroke:none"
         id="flowRoot10">
        <path
           d="m 32.782578,41.76376 h 6.2 v 26.96 h -6.2 v -10.76 h -9.88 v 10.76 h -6.16 v -26.96 h 6.16 v 10.96 h 9.88 z"
           style=""
           id="path4576" />
        <path
           d="m 43.582535,68.72376 2.32,-26.96 h 6.76 l 3.76,9.76 q 0.96,2.44 1.64,4.48 0.68,2.04 0.88,2.88 l 0.2,0.8 q 0.64,-2.64 2.8,-8.16 l 3.8,-9.76 h 6.76 l 2.8,26.96 h -6.16 l -1,-10.44 -0.52,-7.88 q -1.04,3 -2.88,7.88 l -3.8,10.16 h -3.64 l -3.76,-10.16 q -0.92,-2.48 -1.56,-4.44 -0.64,-1.96 -0.84,-2.72 l -0.2,-0.72 q 0,2.84 -0.36,7.88 l -0.84,10.44 z"
           style=""
           id="path4578" />
        <path
           d="m 86.062521,46.76376 v 7.6 h 2.92 q 4,0 4,-3.92 0,-1.72 -1.04,-2.68 -1.04,-1 -2.84,-1 z m 7.72,21.96 -5.84,-9.36 h -1.88 v 9.36 h -6.16 v -26.96 h 9.32 q 4.52,0 7.24,2.4 2.76,2.4 2.76,6.24 0,5.76 -4.92,7.96 l 6.839999,10.36 z"
           style=""
           id="path4580" />
      </g>
      <circle
         r="6.1837149"
         style="fill:#bf0028;fill-opacity:1;stroke-width:0.29861292"
         cy="278.33368"
         cx="95.3787"
         id="path18" />
    </g>
  </g>
</svg>
